<svg xmlns="http://www.w3.org/2000/svg" viewBox="0 0 400 280" role="img" aria-label="Soft washing illustration">
  <defs>
    <linearGradient id="s" x1="0" y1="0" x2="1" y2="1">
      <stop offset="0" stop-color="#159e8c"/><stop offset="1" stop-color="#34B27B"/>
    </linearGradient>
  </defs>
  <rect width="400" height="280" fill="url(#s)"/>
  <g opacity=".16" fill="#fff"><rect x="120" y="70" width="160" height="150" rx="6"/></g>
  <g fill="none" stroke="#fff" stroke-width="7" stroke-linecap="round" stroke-linejoin="round">
    <path d="M150 95 L150 215 M200 95 L200 215 M250 95 L250 215" opacity=".6"/>
    <path d="M120 70 L280 70 L280 220 L120 220 Z"/>
    <path d="M95 120 C 110 120 120 130 135 130" />
  </g>
  <g fill="#eafff6">
    <path d="M300 110 c10 14 16 22 16 30 a16 16 0 0 1-32 0 c0-8 6-16 16-30z" opacity=".95"/>
    <path d="M325 160 c7 9 11 15 11 20 a11 11 0 0 1-22 0 c0-5 4-11 11-20z" opacity=".8"/>
  </g>
</svg>
