<svg xmlns="http://www.w3.org/2000/svg" viewBox="0 0 400 260" role="img" aria-label="Soft washing illustration">
  <defs>
    <linearGradient id="gS" x1="0" y1="0" x2="1" y2="1">
      <stop offset="0" stop-color="#34B27B"/><stop offset=".5" stop-color="#1E88B0"/><stop offset="1" stop-color="#0E2C4B"/>
    </linearGradient>
  </defs>
  <rect width="400" height="260" fill="url(#gS)"/>
  <circle cx="320" cy="50" r="120" fill="#fff" opacity=".06"/>
  <circle cx="70" cy="220" r="80" fill="#fff" opacity=".05"/>
  <g fill="none" stroke="#ffffff" stroke-width="6" stroke-linecap="round" stroke-linejoin="round" opacity=".92">
    <path d="M70 150 h70 v60 h-70 z"/>
    <path d="M150 120 l40 -16 v110 h-40 z"/>
    <path d="M196 100 c34 -2 58 14 58 36 c0 6 -4 10 -10 10 h-48"/>
  </g>
  <g stroke="#bfe6ff" stroke-width="5" stroke-linecap="round" opacity=".9">
    <path d="M262 150 l44 -16"/><path d="M262 168 l46 0"/><path d="M262 186 l44 16"/>
  </g>
  <g fill="#eafff5" opacity=".95">
    <circle cx="330" cy="120" r="5"/><circle cx="350" cy="150" r="6"/><circle cx="338" cy="186" r="4"/><circle cx="360" cy="200" r="5"/>
  </g>
</svg>
